<?xml version="1.0" standalone="no"?>
<!DOCTYPE svg PUBLIC "-//W3C//DTD SVG 20010904//EN"
 "http://www.w3.org/TR/2001/REC-SVG-20010904/DTD/svg10.dtd">
<svg version="1.0" xmlns="http://www.w3.org/2000/svg"
 width="376.000000pt" height="178.000000pt" viewBox="0 0 376.000000 178.000000"
 preserveAspectRatio="xMidYMid meet">
<metadata>
Created by potrace 1.16, written by Peter Selinger 2001-2019
</metadata>
<g transform="translate(0.000000,178.000000) scale(0.100000,-0.100000)"
fill="#000000" stroke="none">
<path d="M0 890 l0 -890 1880 0 1880 0 0 890 0 890 -1880 0 -1880 0 0 -890z
m976 764 c121 -35 196 -77 282 -159 125 -118 137 -175 36 -175 -26 0 -45 10
-88 49 -106 96 -281 172 -395 172 -129 0 -305 -72 -412 -168 -47 -42 -67 -53
-94 -53 -47 0 -65 9 -65 32 0 34 26 71 102 144 164 159 416 222 634 158z
m-678 -350 c10 -3 5 -18 -17 -58 -58 -101 -60 -203 -8 -371 17 -56 22 -64 25
-43 3 22 13 32 49 48 l46 20 35 -22 c25 -15 44 -41 69 -94 19 -40 36 -83 37
-96 5 -37 71 -212 74 -195 2 8 -4 32 -13 53 -8 20 -13 39 -11 41 2 2 16 -28
31 -67 60 -157 71 -248 33 -274 -12 -9 -37 -19 -54 -22 -18 -3 -35 -12 -38
-19 -3 -8 -25 -17 -50 -20 -89 -14 -160 43 -245 192 -54 95 -53 108 1 18 69
-115 153 -185 222 -185 14 0 27 3 29 8 3 4 -18 45 -45 92 -65 109 -108 207
-155 352 -34 104 -41 118 -66 127 -35 13 -54 6 -73 -28 -13 -24 -14 -7 -11
179 4 172 8 219 27 293 l23 87 36 -6 c20 -3 42 -7 49 -10z m1112 -71 c19 -74
23 -121 27 -293 3 -186 2 -203 -11 -179 -19 34 -38 41 -73 28 -25 -9 -32 -23
-66 -127 -47 -146 -92 -246 -156 -353 -27 -46 -48 -87 -45 -91 3 -4 16 -8 30
-8 69 0 153 70 222 185 54 90 55 77 1 -18 -85 -149 -156 -206 -245 -192 -25 3
-47 12 -50 20 -3 7 -20 16 -38 19 -17 3 -42 13 -54 22 -38 26 -27 117 33 274
29 76 46 92 20 20 -8 -23 -15 -48 -14 -54 1 -18 70 166 74 198 2 15 19 61 38
101 25 52 44 78 69 93 l35 22 46 -20 c36 -16 46 -26 49 -48 3 -21 8 -13 25 43
52 168 50 270 -8 371 -34 60 -33 62 57 73 6 0 22 -38 34 -86z m319 -731 c22
-11 38 -27 42 -45 9 -34 -7 -96 -27 -104 -20 -8 -18 -19 16 -69 l31 -44 -36 0
c-31 0 -40 6 -67 45 -22 31 -39 45 -55 45 -21 0 -23 -5 -23 -45 0 -43 -1 -45
-30 -45 l-30 0 0 140 0 140 73 0 c49 0 83 -6 106 -18z m173 -94 l3 -113 58 -3
c53 -3 57 -5 57 -27 0 -25 -1 -25 -90 -25 l-90 0 0 140 0 140 30 0 29 0 3
-112z m242 72 c14 -22 28 -40 31 -40 2 0 14 18 26 40 20 36 27 40 61 40 l39 0
-42 -62 c-23 -34 -42 -67 -42 -73 0 -6 18 -39 41 -73 23 -33 42 -63 42 -66 0
-4 -15 -6 -34 -6 -29 0 -38 6 -64 46 l-30 46 -31 -46 c-28 -40 -37 -46 -66
-46 l-35 0 45 69 c25 38 45 72 45 76 0 3 -13 25 -29 48 -15 23 -33 52 -40 65
-11 21 -10 22 22 22 29 0 39 -6 61 -40z m425 -37 l39 -78 36 78 35 77 41 0 40
0 0 -140 0 -140 -30 0 -30 0 -1 88 0 87 -37 -72 c-27 -55 -41 -73 -57 -73 -16
0 -30 18 -57 73 l-37 72 0 -87 -1 -88 -30 0 -30 0 0 140 0 140 40 0 c40 0 40
0 79 -77z m636 7 c17 -7 25 -16 23 -28 -3 -13 -12 -16 -45 -14 -62 5 -62 -14
1 -42 50 -22 56 -28 56 -55 0 -61 -61 -87 -139 -60 -33 12 -36 16 -22 38 7 11
15 11 44 1 36 -14 67 -9 67 10 0 6 -23 20 -50 32 -73 30 -81 83 -19 115 29 15
50 16 84 3z m350 -4 c38 -16 40 -19 25 -46 -9 -18 -12 -18 -38 -4 -58 33 -114
-26 -78 -81 19 -29 66 -34 86 -10 10 12 16 13 26 4 54 -45 -55 -91 -126 -54
-37 19 -50 43 -50 90 0 47 14 71 53 95 38 24 57 25 102 6z m-675 -57 c0 -72
12 -99 45 -99 33 0 45 27 45 99 l0 61 30 0 30 0 0 -105 0 -105 -29 0 c-16 0
-31 6 -34 13 -4 10 -7 10 -18 0 -21 -20 -70 -15 -96 9 -20 19 -23 31 -23 105
0 82 0 83 25 83 24 0 25 -3 25 -61z"/>
</g>
</svg>
